<svg width="29" height="29" viewBox="0 0 29 29" fill="none" xmlns="http://www.w3.org/2000/svg">
<path id="Vector" d="M7.4388 22.619C7.33811 22.7299 7.21224 22.7114 7.0612 22.5636C6.89757 22.4281 6.8724 22.311 6.98568 22.2125C7.08637 22.1016 7.21224 22.1201 7.36328 22.2679C7.51432 22.4034 7.5395 22.5205 7.4388 22.619ZM6.64583 21.4918C6.75911 21.6396 6.75911 21.7567 6.64583 21.8429C6.54514 21.9168 6.43815 21.8737 6.32487 21.7135C6.21159 21.5534 6.21159 21.4425 6.32487 21.3809C6.43815 21.2947 6.54514 21.3316 6.64583 21.4918ZM5.49414 20.383C5.43121 20.4692 5.34939 20.4816 5.2487 20.42C5.12283 20.3584 5.07878 20.2844 5.11654 20.1982C5.1543 20.1366 5.23611 20.1243 5.36198 20.1613C5.48785 20.2228 5.5319 20.2968 5.49414 20.383ZM6.07943 21.0113C6.00391 21.0976 5.90321 21.0791 5.77734 20.9559C5.66406 20.8204 5.65148 20.7218 5.73958 20.6602C5.8151 20.5863 5.9158 20.6048 6.04167 20.7156C6.15495 20.8512 6.16753 20.9497 6.07943 21.0113ZM8.51497 23.081C8.46463 23.2289 8.34505 23.2658 8.15625 23.1919C7.94227 23.1426 7.86046 23.0502 7.91081 22.9147C7.96115 22.7792 8.08073 22.7361 8.26953 22.7854C8.47092 22.847 8.55273 22.9455 8.51497 23.081ZM9.70443 23.1734C9.70443 23.3089 9.60373 23.3767 9.40234 23.3767C9.18837 23.4013 9.08138 23.3336 9.08138 23.1734C9.08138 23.0379 9.18207 22.9702 9.38346 22.9702C9.59744 22.9455 9.70443 23.0133 9.70443 23.1734ZM10.7995 22.9886C10.8247 23.1118 10.7365 23.1981 10.5352 23.2473C10.3338 23.2966 10.2205 23.2473 10.1953 23.0995C10.1701 22.9517 10.2582 22.8593 10.4596 22.8223C10.661 22.7977 10.7743 22.8531 10.7995 22.9886ZM29 5.32213V23.0625C29 24.5286 28.4682 25.7821 27.4046 26.8231C26.341 27.8642 25.0603 28.3847 23.5625 28.3847H19.3333C19.1319 28.3847 18.9778 28.3785 18.8708 28.3662C18.7638 28.3539 18.6411 28.3231 18.5026 28.2738C18.3641 28.2245 18.2635 28.1352 18.2005 28.0058C18.1376 27.8765 18.1061 27.7071 18.1061 27.4977V23.081C18.1061 21.886 17.7789 21.0113 17.1243 20.4569C17.8418 20.383 18.4869 20.2721 19.0596 20.1243C19.6323 19.9765 20.2239 19.7362 20.8343 19.4036C21.4448 19.071 21.9545 18.6613 22.3636 18.1747C22.7727 17.6881 23.1062 17.0413 23.3643 16.2343C23.6223 15.4274 23.7513 14.5003 23.7513 13.4532C23.7513 11.9625 23.2541 10.6935 22.2598 9.64635C22.7255 8.52526 22.6751 7.26865 22.1087 5.87651C21.7563 5.76564 21.2465 5.8334 20.5794 6.07979C19.9123 6.32619 19.3333 6.59722 18.8424 6.89289L18.125 7.3364C16.9544 7.01609 15.7461 6.85593 14.5 6.85593C13.2539 6.85593 12.0456 7.01609 10.875 7.3364C10.6736 7.20089 10.4061 7.03457 10.0726 6.83745C9.73904 6.64034 9.21354 6.40318 8.49609 6.12599C7.77865 5.8488 7.23741 5.76564 6.8724 5.87651C6.31858 7.26865 6.27452 8.52526 6.74023 9.64635C5.74588 10.6935 5.2487 11.9625 5.2487 13.4532C5.2487 14.5003 5.37771 15.4243 5.63574 16.2251C5.89377 17.0259 6.22418 17.6727 6.62695 18.1655C7.02973 18.6582 7.53635 19.071 8.14681 19.4036C8.75727 19.7362 9.34885 19.9765 9.92155 20.1243C10.4942 20.2721 11.1393 20.383 11.8568 20.4569C11.3533 20.9004 11.0449 21.5349 10.9316 22.3603C10.6673 22.4835 10.3841 22.5759 10.082 22.6375C9.77995 22.6991 9.42122 22.7299 9.00586 22.7299C8.5905 22.7299 8.17828 22.5975 7.76921 22.3326C7.36013 22.0677 7.01085 21.6827 6.72135 21.1776C6.48221 20.7834 6.17698 20.4631 5.80566 20.2167C5.43435 19.9703 5.12283 19.8225 4.87109 19.7732L4.49349 19.7177C4.22917 19.7177 4.04666 19.7455 3.94596 19.8009C3.84527 19.8563 3.8138 19.9272 3.85156 20.0134C3.88932 20.0997 3.94596 20.1859 4.02148 20.2721C4.09701 20.3584 4.17882 20.4323 4.26693 20.4939L4.39909 20.5863C4.676 20.7095 4.94976 20.9436 5.22038 21.2885C5.49099 21.6335 5.68924 21.9476 5.8151 22.231L6.00391 22.656C6.16753 23.1241 6.44444 23.503 6.83464 23.7925C7.22483 24.082 7.64648 24.2668 8.09961 24.3469C8.55273 24.427 8.99013 24.4701 9.41178 24.4762C9.83344 24.4824 10.1827 24.4608 10.4596 24.4116L10.8939 24.3376C10.8939 24.8058 10.897 25.4403 10.9033 26.241C10.9096 27.0418 10.9128 27.4607 10.9128 27.4977C10.9128 27.7687 10.8435 27.975 10.7051 28.1167C10.5666 28.2584 10.4282 28.3385 10.2897 28.357C10.1513 28.3754 9.94358 28.3847 9.66667 28.3847H5.4375C3.93967 28.3847 2.65896 27.8642 1.59538 26.8231C0.531793 25.7821 0 24.5286 0 23.0625V5.32213C0 3.85608 0.531793 2.60254 1.59538 1.56153C2.65896 0.520509 3.93967 0 5.4375 0H23.5625C25.0603 0 26.341 0.520509 27.4046 1.56153C28.4682 2.60254 29 3.85608 29 5.32213Z" fill="black"/>
</svg>
