<svg width="29" height="29" viewBox="0 0 29 29" fill="none" xmlns="http://www.w3.org/2000/svg">
<g id="Layer 2">
<g id="Layer 1">
<path id="Vector" d="M22.4908 0H6.50918C2.91426 0 0 2.85242 0 6.37107V22.0136C0 25.5322 2.91426 28.3847 6.50918 28.3847H22.4908C26.0857 28.3847 29 25.5322 29 22.0136V6.37107C29 2.85242 26.0857 0 22.4908 0Z" fill="#0B86CA"/>
<path id="Vector_2" d="M8.03617 11.7985H11.0497V21.3157H8.03617V11.7985ZM9.57306 7.06934C9.91832 7.06934 10.2558 7.16943 10.5431 7.35698C10.8303 7.54453 11.0543 7.81113 11.1869 8.12316C11.3194 8.43519 11.3546 8.77865 11.288 9.11024C11.2214 9.44182 11.0559 9.74666 10.8125 9.9863C10.569 10.2259 10.2585 10.3896 9.92016 10.4568C9.58178 10.5239 9.23067 10.4914 8.91112 10.3634C8.59158 10.2354 8.31792 10.0177 8.12466 9.73766C7.9314 9.45763 7.82721 9.12785 7.82522 8.78992C7.8239 8.56443 7.86813 8.34092 7.95538 8.13222C8.04262 7.92353 8.17115 7.73377 8.33359 7.57387C8.49602 7.41397 8.68915 7.28708 8.90186 7.20049C9.11458 7.11391 9.34268 7.06933 9.57306 7.06934Z" fill="white"/>
<path id="Vector_3" d="M12.9781 11.7984H15.8811V13.0962C16.1717 12.6108 16.5915 12.2117 17.0957 11.9416C17.5999 11.6715 18.1696 11.5404 18.7439 11.5624C21.7574 11.5624 22.3702 13.5288 22.3702 16.0949V21.3157H19.3567V16.7143C19.3567 15.6132 19.3567 14.1876 17.7896 14.1876C16.2226 14.1876 15.9815 15.387 15.9815 16.6259V21.3353H12.968L12.9781 11.7984Z" fill="white"/>
</g>
</g>
</svg>
