<svg width="30" height="30" viewBox="0 0 30 30" fill="none" xmlns="http://www.w3.org/2000/svg">
<g id="Graphics-_x2F_-App-Icons-_x2F_-WhatsApp">
<g id="Icon_6_">
<path id="Background_7_" d="M7.44805 0H6.66059C6.00438 0.0328108 5.1513 0.0656216 4.79038 0.164054C4.19978 0.295297 3.642 0.459351 3.18265 0.689027C2.65768 0.951513 2.16551 1.31243 1.73897 1.73897C1.31243 2.16551 0.984324 2.62486 0.689027 3.18265C0.459351 3.642 0.262486 4.19978 0.164054 4.75757C0.0984324 5.1513 0.0328108 6.00438 0 6.66059V22.6395C0.0328108 23.2957 0.0656216 24.1488 0.164054 24.5097C0.295297 25.1003 0.459351 25.658 0.689027 26.1174C0.951513 26.6424 1.31243 27.1345 1.73897 27.5611C2.16551 27.9876 2.62486 28.3157 3.18265 28.611C3.642 28.8407 4.19978 29.0376 4.75757 29.136C5.1513 29.2016 6.00438 29.2672 6.66059 29.3H22.6395C23.2957 29.2672 24.1488 29.2344 24.5097 29.136C25.1003 29.0048 25.6581 28.8407 26.1174 28.611C26.6424 28.3485 27.1345 27.9876 27.5611 27.5611C27.9876 27.1345 28.3157 26.6752 28.611 26.1174C28.8407 25.658 29.0376 25.1003 29.136 24.5425C29.2016 24.1488 29.2672 23.2957 29.3 22.6395V6.66059C29.2672 6.00438 29.2344 5.1513 29.136 4.79038C29.0048 4.19978 28.8407 3.642 28.611 3.18265C28.3485 2.65768 27.9876 2.16551 27.5611 1.73897C27.1345 1.31243 26.6752 0.984324 26.1174 0.689027C25.6581 0.459351 25.1003 0.262486 24.5425 0.164054C24.1488 0.0984324 23.2957 0.0328108 22.6395 0H7.44805Z" fill="url(#paint0_linear_242_8)"/>
<path id="WhatsApp-Icon" d="M19.9818 16.2083C19.7193 16.0771 18.4068 15.4537 18.1772 15.3553C17.9475 15.2568 17.7506 15.224 17.5866 15.4865C17.4225 15.749 16.8975 16.3396 16.7663 16.5036C16.6023 16.6677 16.471 16.7005 16.2085 16.5693C15.946 16.438 15.093 16.1755 14.0758 15.2896C13.2884 14.6006 12.7634 13.7475 12.5993 13.4851C12.4353 13.2226 12.5993 13.0913 12.7306 12.9601C12.8618 12.8288 12.9931 12.6648 13.1243 12.5007C13.2555 12.3367 13.2884 12.2382 13.3868 12.0742C13.4852 11.9101 13.4196 11.7461 13.354 11.6148C13.2884 11.4836 12.7634 10.204 12.5337 9.679C12.304 9.18684 12.1072 9.25246 11.9431 9.21965H11.451C11.2869 9.21965 10.9916 9.28527 10.7619 9.54775C10.5323 9.81024 9.84323 10.4336 9.84323 11.7133C9.84323 12.9929 10.7947 14.2069 10.926 14.4038C11.0572 14.5678 12.7962 17.1927 15.4211 18.3082C16.0445 18.5707 16.5366 18.7348 16.9304 18.866C17.5538 19.0629 18.1444 19.0301 18.6037 18.9645C19.0959 18.8988 20.1786 18.341 20.3755 17.7505C20.6052 17.1599 20.6052 16.6349 20.5395 16.5365C20.4083 16.4052 20.2443 16.3396 19.9818 16.2083ZM14.9617 22.9674C13.3868 22.9674 11.8775 22.5408 10.5323 21.7534L10.2041 21.5565L6.92306 22.4096L7.80896 19.2269L7.61209 18.8988C6.75901 17.5208 6.29966 15.9459 6.29966 14.3053C6.29966 9.54775 10.2041 5.67608 14.9945 5.67608C17.2585 5.67608 19.4568 6.56197 21.0973 8.20251C22.7379 9.84305 23.6238 12.0086 23.6238 14.3053C23.6238 19.0629 19.7193 22.9674 14.9617 22.9674ZM22.3441 6.9557C20.3755 4.98705 17.7506 3.9043 14.9617 3.9043C9.21982 3.9043 4.52788 8.56343 4.52788 14.3053C4.52788 16.1427 5.02004 17.9145 5.90593 19.4894L4.42944 24.8704L9.94166 23.4267C11.451 24.247 13.1899 24.7063 14.9289 24.7063C20.6708 24.7063 25.3627 20.0472 25.3627 14.3053C25.3955 11.5492 24.3128 8.92435 22.3441 6.9557Z" fill="white"/>
</g>
</g>
<defs>
<linearGradient id="paint0_linear_242_8" x1="14.6599" y1="0.00656216" x2="14.6599" y2="29.2804" gradientUnits="userSpaceOnUse">
<stop stop-color="#62FA7F"/>
<stop offset="0.686" stop-color="#22CC40"/>
<stop offset="1" stop-color="#05B723"/>
</linearGradient>
</defs>
</svg>
